# xmcd CD database file
#
# Track frame offsets:
#	150
#	14632
#	29175
#	47182
#	64250
#	77362
#	92195
#	109507
#	126600
#	142200
#	162890
#	175220
#	193490
#
# Disc length: 2754 seconds
#
# Revision: 0
# Processed by: cddbd v1.5.1PL2 Copyright (c) Steve Scherf et al.
# Submitted via: CDex 1.40Beta8
#
DISCID=c60ac00d
DTITLE=Mark Weigle - The Truth Is
DYEAR=1998
DGENRE=Country
TTITLE0=If You Grew Up There
TTITLE1=Oz
TTITLE2=Take Your Shoulder from the Wheel
TTITLE3=If It Wasn't Love
TTITLE4=From Your Kid
TTITLE5=Two Cowboy Waltz
TTITLE6=One Less Dancer
TTITLE7=Struggle of Love
TTITLE8=I Confess
TTITLE9=Do You Go
TTITLE10=When I See You Say
TTITLE11=No More Nights Alone
TTITLE12=Battle Mountain Nevada
EXTD=YEAR: 1998 ID3G: 2
EXTT0=
EXTT1=
EXTT2=
EXTT3=
EXTT4=
EXTT5=
EXTT6=
EXTT7=
EXTT8=
EXTT9=
EXTT10=
EXTT11=
EXTT12=
PLAYORDER=
